<svg width="160" height="160" viewBox="0 0 160 160" fill="none" xmlns="http://www.w3.org/2000/svg">
<path d="M142.079 52.9017C141.152 51.9682 140.049 51.2279 138.834 50.7237C137.619 50.2194 136.316 49.9613 135.001 49.9642H115.001V44.9642C115.001 35.6816 111.313 26.7792 104.75 20.2154C98.1858 13.6517 89.2834 9.96417 80.0009 9.96417C70.7183 9.96417 61.8159 13.6517 55.2521 20.2154C48.6883 26.7792 45.0009 35.6816 45.0009 44.9642V49.9642H25.0009C22.3487 49.9642 19.8052 51.0177 17.9298 52.8931C16.0544 54.7685 15.0009 57.312 15.0009 59.9642V127.464C15.0009 139.652 25.3134 149.964 37.5009 149.964H122.501C128.396 149.966 134.058 147.661 138.276 143.542C140.398 141.517 142.089 139.083 143.244 136.387C144.4 133.691 144.998 130.788 145.001 127.855V59.9642C145.005 58.6523 144.749 57.3526 144.247 56.1403C143.746 54.928 143.009 53.8272 142.079 52.9017V52.9017ZM55.0009 44.9642C55.0009 38.3338 57.6348 31.9749 62.3232 27.2865C67.0116 22.5981 73.3704 19.9642 80.0009 19.9642C86.6313 19.9642 92.9901 22.5981 97.6785 27.2865C102.367 31.9749 105.001 38.3338 105.001 44.9642V49.9642H55.0009V44.9642Z" fill="#5861A1"/>
</svg>
