<svg xmlns="http://www.w3.org/2000/svg" viewBox="0 0 500 500"><g id="freepik--Device--inject-42"><path d="M216.14,167v-31.5h-2.85V95.19a24.85,24.85,0,0,0-24.85-24.86H54.92A24.86,24.86,0,0,0,30.06,95.19V412.62a24.86,24.86,0,0,0,24.86,24.86H188.44a24.85,24.85,0,0,0,24.85-24.86V193.85h2.85V175.24h-2.85V167Z" style="fill:#707070;stroke:#263238;stroke-linejoin:round"></path><path d="M184.08,434.05H59.27a26.33,26.33,0,0,1-26.33-26.33V100.09c0-14.55,7.46-26.34,26.33-26.34H184.08c17.31-.23,26.34,11.79,26.34,26.34V407.72A26.33,26.33,0,0,1,184.08,434.05Z" style="fill:#263238;stroke:#263238;stroke-linejoin:round"></path><path d="M131.34,77.8l-.05.19c-1.46,5.44-4.82,9-8.54,9h-2.14c-3.72,0-7.08-3.52-8.54-9l0-.19-52.08-.18A21.92,21.92,0,0,0,38,99.53l-.07,304.94c0,14.21,11.12,25.73,24.85,25.73H180.62c13.73,0,24.86-11.52,24.86-25.73l0-307.13a19,19,0,0,0-18.78-19Z" style="fill:#fff;stroke:#263238;stroke-miterlimit:10"></path><path d="M205.46,102.88V97.34a19,19,0,0,0-18.78-19l-55.34-.57-.05.19c-1.46,5.44-4.82,9-8.54,9h-2.14c-3.72,0-7.08-3.52-8.54-9l0-.19-52.08-.18A21.92,21.92,0,0,0,38,99.53v3.35Z" style="fill:#dbdbdb;stroke:#263238;stroke-miterlimit:10"></path><path d="M123.5,77.2a2.34,2.34,0,1,0-2.33,2.34A2.33,2.33,0,0,0,123.5,77.2Z" style="fill:#707070"></path><path d="M54.4,83.14c0,2.37-2.65,3.22-2.66,5v.12h2.57v.79H50.88V88.4c0-2.53,2.65-3,2.65-5.22,0-.81-.27-1.23-.92-1.23s-.92.46-.92,1.15v.69h-.81v-.63c0-1.2.54-2,1.75-2S54.4,82,54.4,83.14Z" style="fill:#263238"></path><path d="M58.69,83.13v.2a1.57,1.57,0,0,1-1,1.62,1.55,1.55,0,0,1,1,1.62v.6c0,1.2-.56,2-1.77,2s-1.76-.78-1.76-2v-.53H56v.59c0,.7.29,1.13.92,1.13s.91-.42.91-1.21v-.6c0-.78-.32-1.15-1-1.17h-.47V84.6h.51a.94.94,0,0,0,.94-1.08v-.35c0-.81-.28-1.22-.91-1.22s-.92.43-.92,1.14v.4h-.82v-.36c0-1.19.56-2,1.76-2S58.69,81.94,58.69,83.13Z" style="fill:#263238"></path><path d="M60.38,83.73v1.08h-.84V83.73Zm0,4.26v1.08h-.84V88Z" style="fill:#263238"></path><path d="M62.14,84.43a1.28,1.28,0,0,1,1.17-.65c1,0,1.45.74,1.45,1.86v1.53c0,1.2-.57,2-1.76,2s-1.76-.78-1.76-2v-.52h.81v.58c0,.7.3,1.13.92,1.13s.92-.43.92-1.13V85.71c0-.71-.29-1.13-.92-1.13a.84.84,0,0,0-.88.84v.17h-.82l.21-4.35h3.09V82h-2.3Z" style="fill:#263238"></path><path d="M69.12,83.12v.15H68.3v-.2c0-.71-.29-1.12-.93-1.12s-1,.42-1,1.26V85a1.26,1.26,0,0,1,1.26-.84c1,0,1.46.73,1.46,1.86v1.18c0,1.2-.59,2-1.79,2s-1.8-.78-1.8-2v-4c0-1.24.56-2,1.8-2S69.12,81.92,69.12,83.12Zm-2.7,2.93v1.18c0,.7.29,1.13.93,1.13s.93-.43.93-1.13V86.05c0-.7-.3-1.13-.93-1.13S66.42,85.35,66.42,86.05Z" style="fill:#263238"></path><rect x="152.41" y="83.47" width="2.21" height="5.53" style="fill:#263238"></rect><rect x="155.36" y="82.36" width="2.21" height="6.64" style="fill:#263238"></rect><rect x="158.31" y="81.57" width="2.21" height="7.42" style="fill:#263238"></rect><rect x="161.25" y="80.2" width="2.21" height="8.79" style="fill:#263238"></rect><path d="M190.83,88.84H177.56V80.73h13.27Zm-12.53-.73h11.79V81.47H178.3Z" style="fill:#263238"></path><rect x="179.41" y="82.27" width="7" height="5.03" style="fill:#263238"></rect><rect x="190.37" y="83.83" width="1.67" height="1.91" style="fill:#263238"></rect><path d="M172.7,87.08a.48.48,0,0,1-.26-.07c-2.7-1.61-4.48-.12-4.56-.05a.49.49,0,0,1-.69,0,.5.5,0,0,1,0-.7c.1-.08,2.38-2,5.72,0a.5.5,0,0,1-.25.92Z" style="fill:#263238"></path><path d="M173.7,85.41a.48.48,0,0,1-.26-.07c-3.9-2.32-6.53-.07-6.55,0a.5.5,0,0,1-.66-.74s3.2-2.74,7.72-.06a.49.49,0,0,1,.17.68A.48.48,0,0,1,173.7,85.41Z" style="fill:#263238"></path><path d="M174.6,83.48a.47.47,0,0,1-.25-.07c-4.94-2.94-8.23-.17-8.37,0a.49.49,0,0,1-.7,0,.48.48,0,0,1,.05-.69s3.94-3.38,9.53-.06a.5.5,0,0,1,.17.68A.49.49,0,0,1,174.6,83.48Z" style="fill:#263238"></path><path d="M171.21,87.91A1.25,1.25,0,1,1,170,86.67,1.24,1.24,0,0,1,171.21,87.91Z" style="fill:#263238"></path><path d="M121.53,217.66c22,.34,40.33,8.68,54.78,25.36a5.08,5.08,0,0,1-.47,7.33,5,5,0,0,1-7.15-.66,62.94,62.94,0,0,0-18.47-14.9,61.21,61.21,0,0,0-68.4,7.45,92.38,92.38,0,0,0-7.42,7.39,5.17,5.17,0,0,1-7.32.66,5.1,5.1,0,0,1-.36-7.33,71.44,71.44,0,0,1,45.7-24.87c1.44-.19,2.89-.35,4.34-.41S119.94,217.66,121.53,217.66Z" style="fill:#263238"></path><path d="M123.35,238.05c13.9.36,27,6.29,37.24,18.17a5,5,0,0,1-.46,7.3,5,5,0,0,1-7.22-.7,39.62,39.62,0,0,0-19.8-12.9C117,245.56,103,249.54,91.3,261.49c-.44.45-.84.93-1.25,1.39a5.08,5.08,0,1,1-7.68-6.65,51.11,51.11,0,0,1,16.38-12.85C105.94,239.81,113.57,238.08,123.35,238.05Z" style="fill:#263238"></path><path d="M146.21,272.81a5.08,5.08,0,0,1-3.25,4.76,5,5,0,0,1-5.66-1.42,21.34,21.34,0,0,0-7.76-5.77C121.2,266.84,112,269,105.79,276a4.92,4.92,0,0,1-5.43,1.63A5.07,5.07,0,0,1,98,269.52a30.52,30.52,0,0,1,47,.08,14.27,14.27,0,0,1,1.5,3.09Z" style="fill:#263238"></path><path d="M121.52,299.5a10.2,10.2,0,1,1,10.17-10.15A10.14,10.14,0,0,1,121.52,299.5Z" style="fill:#263238"></path><path d="M121.58,182a72.72,72.72,0,1,0,72.71,72.71A72.8,72.8,0,0,0,121.58,182ZM58.86,254.75A62.68,62.68,0,0,1,164,208.56L75.39,297.13A62.52,62.52,0,0,1,58.86,254.75Zm62.72,62.72a62.4,62.4,0,0,1-38.85-13.54l88-88a62.67,62.67,0,0,1-49.18,101.57Z" style="fill:#5861A1"></path></g></svg>