<svg width="160" height="160" viewBox="0 0 160 160" fill="none" xmlns="http://www.w3.org/2000/svg">
<path d="M111.741 69.9732C115.026 69.9823 118.28 69.3395 121.315 68.0821C124.35 66.8248 127.106 64.9778 129.422 62.6482L153.484 38.6014C155.388 36.6982 155.563 33.6014 153.75 31.6045C153.295 31.1028 152.743 30.6988 152.127 30.417C151.511 30.1351 150.844 29.9814 150.167 29.965C149.49 29.9486 148.817 30.07 148.188 30.3218C147.559 30.5735 146.988 30.9504 146.509 31.4295L125.063 52.8607C124.342 53.58 123.366 53.984 122.348 53.984C121.331 53.984 120.355 53.58 119.634 52.8607C118.138 51.367 118.219 48.842 119.713 47.3482L141.066 25.9951C141.544 25.5164 141.921 24.9456 142.172 24.3171C142.424 23.6886 142.545 23.0156 142.528 22.3389C142.512 21.6622 142.359 20.9958 142.077 20.3802C141.795 19.7646 141.392 19.2126 140.891 18.7576C139.986 17.9369 138.806 17.4853 137.584 17.492C136.2 17.4929 134.872 18.0437 133.894 19.0232L112.559 40.3545C111.839 41.0737 110.863 41.4777 109.845 41.4777C108.828 41.4777 107.851 41.0737 107.131 40.3545C105.638 38.8607 105.716 36.3357 107.209 34.842L128.563 13.4951C129.041 13.0164 129.418 12.4456 129.669 11.8171C129.921 11.1886 130.042 10.5156 130.025 9.83887C130.009 9.16215 129.855 8.4958 129.574 7.88021C129.292 7.26461 128.889 6.71259 128.388 6.25761C127.483 5.43687 126.303 4.98526 125.081 4.99199C123.697 4.99363 122.37 5.54431 121.391 6.52324L97.3438 30.5701C95.0139 32.8869 93.1669 35.6429 91.9095 38.6784C90.6522 41.714 90.0095 44.9688 90.0188 48.2545V50.8264C90.0193 51.4839 89.8901 52.1351 89.6386 52.7427C89.3871 53.3502 89.0183 53.9022 88.5531 54.367L77.425 65.4982C77.3089 65.6145 77.1711 65.7067 77.0193 65.7696C76.8676 65.8325 76.7049 65.8648 76.5406 65.8648C76.3764 65.8648 76.2137 65.8325 76.062 65.7696C75.9102 65.7067 75.7724 65.6145 75.6563 65.4982L21.5063 11.3451C20.5717 10.4095 19.3045 9.88217 17.982 9.87866C16.6596 9.87514 15.3896 10.3957 14.45 11.3264C9.71566 16.017 7.18753 22.6389 7.18753 30.4732C7.15628 43.4107 13.9563 58.2857 24.9344 69.2482L51.6375 95.9514C55.4328 99.739 60.5756 101.866 65.9375 101.867C67.6469 101.868 69.3493 101.649 71.0031 101.217C71.4184 101.108 71.8458 101.053 72.275 101.051C73.5302 101.052 74.7391 101.526 75.6594 102.379L79.2188 105.667C80.1368 106.605 80.6525 107.864 80.6563 109.176V110.908C80.6471 114.843 82.1939 118.623 84.9594 121.423L113.1 150.039L113.128 150.07C116.251 153.193 120.487 154.947 124.904 154.947C129.321 154.947 133.557 153.192 136.68 150.069C139.803 146.945 141.557 142.709 141.557 138.292C141.556 133.876 139.801 129.64 136.678 126.517L94.4969 84.3357C94.3807 84.2196 94.2885 84.0818 94.2256 83.93C94.1627 83.7783 94.1303 83.6156 94.1303 83.4514C94.1303 83.2871 94.1627 83.1244 94.2256 82.9727C94.2885 82.8209 94.3807 82.6831 94.4969 82.567L105.625 71.4389C106.089 70.9741 106.641 70.6055 107.248 70.354C107.855 70.1025 108.506 69.9731 109.163 69.9732H111.741Z" fill="#5861A1"/>
<path d="M65.9377 111.85C57.9325 111.834 50.2566 108.662 44.5752 103.022L40.244 98.6908C39.7753 98.2232 39.1403 97.9607 38.4783 97.9607C37.8163 97.9607 37.1814 98.2232 36.7127 98.6908L10.1502 125.116C5.41583 129.85 3.72521 136.819 6.06896 143.644C6.20013 144.028 6.35566 144.404 6.53458 144.769C9.68771 151.225 15.8065 154.975 22.5002 154.975C24.8022 154.981 27.0824 154.53 29.2088 153.648C31.3352 152.766 33.2654 151.471 34.8877 149.838L70.3127 114.244C70.4618 114.092 70.576 113.909 70.6472 113.708C70.7185 113.507 70.7451 113.293 70.7252 113.081V113C70.7113 112.805 70.6581 112.615 70.5688 112.442C70.4795 112.268 70.3559 112.114 70.2055 111.989C70.0551 111.865 69.881 111.772 69.6938 111.716C69.5065 111.66 69.3099 111.643 69.1158 111.666C68.0604 111.783 66.9996 111.844 65.9377 111.85V111.85Z" fill="#666666"/>
</svg>
