<svg width="160" height="160" viewBox="0 0 160 160" fill="none" xmlns="http://www.w3.org/2000/svg">
<path d="M79.9997 14.9969C44.1591 14.9969 14.9997 44.1563 14.9997 79.9969C14.9997 115.838 44.1591 144.997 79.9997 144.997C115.84 144.997 145 115.838 145 79.9969C145 44.1563 115.84 14.9969 79.9997 14.9969ZM113.828 58.2125L71.8278 108.213C71.3671 108.761 70.7938 109.205 70.1468 109.512C69.4998 109.82 68.7942 109.986 68.0778 109.997H67.9934C67.2926 109.997 66.5997 109.849 65.9596 109.564C65.3195 109.278 64.7465 108.862 64.2778 108.341L46.2778 88.3406C45.8207 87.8558 45.4651 87.2844 45.2319 86.6602C44.9987 86.036 44.8927 85.3714 44.92 84.7056C44.9474 84.0398 45.1075 83.3861 45.3911 82.7831C45.6746 82.18 46.0758 81.6398 46.5712 81.194C47.0665 80.7482 47.6459 80.406 48.2754 80.1874C48.9049 79.9688 49.5718 79.8782 50.2368 79.9209C50.9018 79.9637 51.5515 80.139 52.1478 80.4365C52.7441 80.7339 53.2749 81.1476 53.7091 81.6531L67.8622 97.3781L106.172 51.7813C107.031 50.7878 108.247 50.1723 109.556 50.068C110.865 49.9637 112.163 50.3788 113.169 51.2237C114.175 52.0686 114.808 53.2753 114.931 54.5831C115.054 55.8909 114.658 57.1946 113.828 58.2125V58.2125Z" fill="#5861A1"/>
</svg>
